# xmcd CD database file
#
# Track frame offsets:
#	150
#	20329
#	38815
#	55973
#	76279
#	95879
#	117346
#	138406
#	156337
#
# Disc length: 2505 seconds
#
# Revision: 0
# Processed by: cddbd v1.4PL0 Copyright (c) Steve Scherf et al.
# Submitted via: CDex 1.50beta10
#
DISCID=7509c709
DTITLE=Zazen - Light Saber
DYEAR=1990
DGENRE=New Age
TTITLE0=Shire Dance
TTITLE1=Journey to Mordo
TTITLE2=Song of the Cave Dwarves
TTITLE3=Gandalf The Wizard
TTITLE4=Entmoot
TTITLE5=Bilbo's Song
TTITLE6=Hobbit Plane-The Road Goes On and On
TTITLE7=Lothlorien
TTITLE8=Light Saber
EXTD=YEAR: 1990
EXTT0=
EXTT1=
EXTT2=
EXTT3=
EXTT4=
EXTT5=
EXTT6=
EXTT7=
EXTT8=
PLAYORDER=
